        <svg xmlns="http://www.w3.org/2000/svg" width="27" height="28" viewBox="0 0 16 16" fill="none"  className="bi bi-wallet2">
  <defs>
    <linearGradient id="paint0_linear_3_26" x1="1" y1="13.8072" x2="25.3675" y2="14.5428" gradientUnits="userSpaceOnUse">
      <stop stopColor="#27C9FF"/>
      <stop offset="1" stopColor="#FBD130"/>
    </linearGradient>
  </defs>
  <path 
    d="M12.136.326A1.5 1.5 0 0 1 14 1.78V3h.5A1.5 1.5 0 0 1 16 4.5v9a1.5 1.5 0 0 1-1.5 1.5h-13A1.5 1.5 0 0 1 0 13.5v-9a1.5 1.5 0 0 1 1.432-1.499zM5.562 3H13V1.78a.5.5 0 0 0-.621-.484zM1.5 4a.5.5 0 0 0-.5.5v9a.5.5 0 0 0 .5.5h13a.5.5 0 0 0 .5-.5v-9a.5.5 0 0 0-.5-.5z" 
    stroke="url(#paint0_linear_3_26)" 
    strokeWidth="1.92375" 
    strokeLinecap="round"  
    strokeLinejoin="round" 
  />
</svg>